<svg viewBox="0 0 120 120" fill="none" xmlns="http://www.w3.org/2000/svg">
  <defs>
    <linearGradient id="bulbGradient" x1="0%" y1="0%" x2="0%" y2="100%">
      <stop offset="0%" style="stop-color:#00D9FF;stop-opacity:1" />
      <stop offset="100%" style="stop-color:#0066CC;stop-opacity:1" />
    </linearGradient>
  </defs>
  
  <!-- Lightbulb body -->
  <path d="M50 15 C42 15, 35 22, 35 40 C35 48, 38 55, 42 60 L42 70 C42 74, 46 78, 50 78 L60 78 C64 78, 68 74, 68 70 L68 60 C72 55, 75 48, 75 40 C75 22, 68 15, 60 15 Z" fill="url(#bulbGradient)"/>
  
  <!-- Digital elements inside lightbulb -->
  <rect x="46" y="28" width="6" height="6" fill="#00D9FF" opacity="0.9"/>
  <rect x="56" y="34" width="6" height="6" fill="#00D9FF" opacity="0.9"/>
  <rect x="46" y="40" width="6" height="6" fill="#00D9FF" opacity="0.9"/>
  
  <!-- Lightbulb base lines -->
  <line x1="46" y1="70" x2="64" y2="70" stroke="#003366" stroke-width="2.5" stroke-linecap="round"/>
  <line x1="46" y1="75" x2="64" y2="75" stroke="#003366" stroke-width="2.5" stroke-linecap="round"/>
  
  <!-- Rocket -->
  <g transform="translate(72, 10)">
    <!-- Rocket body -->
    <path d="M0 0 L12 4 L12 20 L0 24 Z" fill="#003366"/>
    <!-- Rocket nose -->
    <path d="M0 0 L4 0 L12 4 L0 0 Z" fill="#0066CC"/>
    <!-- Rocket windows -->
    <circle cx="7" cy="8" r="2" fill="#00D9FF"/>
    <circle cx="7" cy="15" r="2" fill="#00D9FF"/>
    <!-- Rocket fins -->
    <path d="M12 4 L16 6 L12 10 Z" fill="#003366"/>
    <path d="M12 16 L16 14 L12 20 Z" fill="#003366"/>
  </g>
</svg>
